<?xml version="1.0" standalone="no"?>
<!DOCTYPE svg PUBLIC "-//W3C//DTD SVG 20010904//EN"
 "http://www.w3.org/TR/2001/REC-SVG-20010904/DTD/svg10.dtd">
<svg version="1.0" xmlns="http://www.w3.org/2000/svg"
 width="516.000000pt" height="516.000000pt" viewBox="0 0 516.000000 516.000000"
 preserveAspectRatio="xMidYMid meet">
<metadata>
Created by potrace 1.11, written by Peter Selinger 2001-2013
</metadata>
<g transform="translate(0.000000,516.000000) scale(0.100000,-0.100000)"
fill="#000000" stroke="none">
<path d="M12 5151 c-5 -4 -8 -1161 -8 -2573 0 -2312 2 -2568 15 -2572 9 -2
1167 -4 2573 -3 1830 0 2558 3 2561 11 4 10 2 5124 -1 5137 -1 3 -1156 5
-2567 5 -1411 0 -2569 -2 -2573 -5z m1266 -38 c5 -9 8 -1152 3 -1198 -1 -5
-273 262 -606 595 -332 332 -600 607 -596 610 18 11 1193 4 1199 -7z m1242 8
c13 -1 -1186 -1211 -1200 -1211 -3 0 -5 271 -5 602 0 573 1 603 18 608 14 4
1119 5 1187 1z m1317 -5 c4 -4 7 -279 7 -611 l1 -605 -608 608 c-498 498 -603
608 -586 612 31 8 1178 4 1186 -4z m1248 3 c2 -3 -268 -277 -600 -609 -426
-426 -605 -599 -606 -585 -4 95 -1 1184 3 1191 6 9 1194 12 1203 3z m40 -622
c-1 -331 -4 -607 -7 -612 -4 -6 -216 -9 -600 -8 -326 0 -597 1 -603 2 -7 1
1203 1221 1210 1221 0 0 0 -271 0 -603z m-4472 -14 l607 -608 -606 1 c-430 0
-607 3 -612 11 -8 13 -7 1203 1 1203 1 0 275 -273 610 -607z m1911 1 c1 -520
-1 -597 -14 -603 -11 -5 -1145 -7 -1195 -2 -5 1 262 273 595 606 332 332 606
602 609 599 3 -2 5 -273 5 -600z m1237 -604 c-5 -3 -275 -5 -601 -5 -423 1
-593 4 -598 12 -5 8 -8 1137 -3 1198 1 5 273 -262 606 -595 332 -332 600 -607
596 -610z m-2566 -39 c14 -1 -160 -180 -585 -606 -332 -332 -606 -602 -609
-600 -6 7 -5 1190 1 1201 5 7 1045 11 1193 5z m1322 -5 c8 -8 11 -1206 3
-1206 -3 0 -277 272 -609 604 -517 517 -601 605 -580 608 47 6 1179 1 1186 -6z
m1253 4 c0 -14 -1210 -1213 -1211 -1200 -1 20 -1 1159 0 1185 1 20 8 20 606
20 333 0 605 -2 605 -5z m1308 -7 c5 -9 8 -1152 3 -1198 -1 -5 -273 262 -606
595 -332 332 -600 607 -596 610 18 11 1193 4 1199 -7z m-3834 -629 c1 -384 -3
-598 -9 -602 -5 -3 -281 -6 -612 -7 l-603 0 607 607 c334 334 609 605 612 602
3 -2 5 -273 5 -600z m1237 -604 c-5 -3 -275 -5 -601 -5 -423 1 -593 4 -598 12
-5 8 -8 1137 -3 1198 1 5 273 -262 606 -595 332 -332 600 -607 596 -610z
m1323 605 c0 -422 -3 -598 -11 -603 -8 -5 -1178 -8 -1203 -3 -3 1 267 273 599
605 333 333 607 603 610 601 3 -2 6 -272 5 -600z m1241 -604 c-7 -12 -1196 -5
-1203 6 -5 8 -8 1075 -3 1188 1 14 180 -159 605 -584 333 -333 603 -607 601
-610z m-3808 -45 c8 -8 11 -1206 3 -1206 -3 0 -278 273 -613 608 l-607 607
605 -1 c333 0 608 -4 612 -8z m1253 4 c0 -14 -1210 -1213 -1211 -1200 -1 20
-1 1159 0 1185 1 20 8 20 606 20 333 0 605 -2 605 -5z m1307 -4 c4 -4 7 -279
7 -611 l1 -605 -608 608 c-498 498 -603 608 -586 612 31 8 1178 4 1186 -4z
m1248 3 c2 -3 -268 -277 -600 -609 -426 -426 -605 -599 -606 -585 -4 95 -1
1184 3 1191 6 9 1194 12 1203 3z m40 -622 c-1 -331 -4 -607 -7 -612 -4 -6
-216 -9 -600 -8 -326 0 -597 1 -603 2 -7 1 1203 1221 1210 1221 0 0 0 -271 0
-603z m-3880 -616 c-2 -5 -1157 -6 -1200 -2 -7 1 -9 206 -8 598 1 329 2 602 2
608 1 5 273 -262 605 -594 333 -333 603 -607 601 -610z m1318 597 c0 -326 -1
-595 -2 -598 -1 -7 -1211 -7 -1211 0 0 12 1205 1208 1210 1201 3 -5 4 -276 3
-603z m1238 -598 c-5 -3 -275 -5 -601 -5 -423 1 -593 4 -598 12 -5 8 -8 1137
-3 1198 1 5 273 -262 606 -595 332 -332 600 -607 596 -610z m-2556 -41 c2 -3
-268 -277 -600 -609 -426 -426 -605 -599 -606 -585 -4 95 -1 1184 3 1191 6 9
1194 12 1203 3z m1316 1 c4 -19 3 -1210 -1 -1210 -13 0 -1211 1208 -1201 1211
17 6 1201 5 1202 -1z m1249 0 c0 -14 -1210 -1213 -1211 -1200 -1 20 -1 1159 0
1185 1 20 8 20 606 20 333 0 605 -2 605 -5z m1308 -7 c5 -9 8 -1152 3 -1198
-1 -5 -273 262 -606 595 -332 332 -600 607 -596 610 18 11 1193 4 1199 -7z
m-2593 -1232 c-5 -9 -1193 -6 -1201 2 -4 4 -8 279 -8 612 l-1 605 607 -607
c334 -334 605 -609 603 -612z m-1240 604 c-1 -427 -4 -598 -12 -603 -8 -5
-1177 -8 -1203 -3 -3 1 267 273 599 605 333 333 607 603 610 601 3 -2 6 -272
6 -600z m2558 3 c0 -326 -1 -597 -2 -603 -1 -10 -1211 -15 -1211 -5 0 9 1204
1209 1209 1205 3 -2 5 -270 4 -597z m650 -5 l607 -608 -606 1 c-430 0 -607 3
-612 11 -8 13 -7 1203 1 1203 1 0 275 -273 610 -607z"/>
</g>
</svg>
